<svg>
  <defs>
    <linearGradient>
      <stop offset="0" stop-color="#ff8f5c"/>
      <stop offset="1" stop-color="#ff6019" stop-opacity="0"/>
    </linearGradient>
    <linearGradient>
      <stop offset="0" stop-color="#fff" stop-opacity=".9268293"/>
      <stop offset="1" stop-color="#fff" stop-opacity="0"/>
    </linearGradient>
    <linearGradient>
      <stop offset="0" stop-color="#ee8318"/>
      <stop offset="1" stop-color="#ee8318" stop-opacity=".227642"/>
    </linearGradient>
    <linearGradient x1="75.335991" x2="109.92166" y1="118.86177" y2="134.77167" gradientUnits="userSpaceOnUse"/>
    <linearGradient x1="75.335991" x2="109.92166" y1="118.86177" y2="134.77167" gradientUnits="userSpaceOnUse" gradientTransform="matrix(1.207 .258 -.294 1.083 24.432 -61.938)"/>
    <linearGradient x1="75.335991" x2="109.92166" y1="118.86177" y2="134.77167" gradientUnits="userSpaceOnUse" gradientTransform="matrix(1.207 .258 -.294 1.083 91.224 -50.191)"/>
    <linearGradient x1="75.335991" x2="109.92166" y1="118.86177" y2="134.77167" gradientUnits="userSpaceOnUse" gradientTransform="matrix(-1.207 .258 .294 1.083 497.173 50.073)"/>
    <linearGradient x1="75.335991" x2="109.92166" y1="118.86177" y2="134.77167" gradientUnits="userSpaceOnUse" gradientTransform="matrix(-1.207 .258 .294 1.083 563.965 38.327)"/>
  </defs>
  <path stroke="#000" stroke-width="3" stroke-dashoffset="7.8" d="M74.101252 207.89841c-3.860121 1.76178-6.621057.5373-6.186237 10.18422-1.385959-.98588-8.135319-9.49048-13.095852-21.12257-3.482002 3.51252 3.5928 26.27842 10.429734 37.11017-3.129225-1.49771-22.871919-14.90264-22.749379-22.25081-9.574816 6.53237-9.869873 9.16985-10.307059 20.0586-14.690382-33.25542-34.527457-68.98563-16.56539-114.2749 0 0-16.786653-57.632111 65.612572-91.419326 52.133809-21.3771044 76.592309-3.379447 96.034619.939622 49.91718 11.088982 62.59239 75.618735 47.52689 94.272854-2.49394-11.85677-9.58111-21.717388-16.87479-14.699357 39.76806 53.883057 33.78708 71.578927 32.52427 96.397247-12.89089-27.11329-21.10846-30.7095-29.38602-34.60762 1.67422-1.15603 12.31046 23.38911 6.81126 37.29412.15271-15.1801-13.65686-37.68424-15.03389-30.51852 3.23674 24.30257-1.24279 33.78688-11.30692 39.87082.43621-8.20182 2.4602-12.80054-5.42159-28.31997-7.88178-15.51943 4.61198 11.48449 4.12695 12.93366-.48505 1.44918-10.20114 20.8709-16.45626 22.47976 1.12847-14.59105-9.69212-18.01195-9.69212-18.01195-4.42978 8.33125-8.00258 8.86725-13.68292 11.35225.80623-17.00356-16.46859-5.40099-23.24397-12.75482-9.91829-10.76509-50.000135-6.76877-36.4232 17.11365-15.246684-3.31787-5.12135-8.74097-16.640698-12.02713z" stroke-linecap="round" stroke-linejoin="round" overflow="visible"/>
  <path fill="#f7ddbf" stroke="#000" stroke-width="3" stroke-dashoffset="7.8" d="M202.09943 125.60546c11.34737-1.15752 19.43749 16.14154 7.76136 34.37959-2.81448-11.45376-15.67949-22.63733-7.76136-34.37959z" stroke-linecap="round" stroke-linejoin="round" overflow="visible"/>
  <path fill="#f8dbbb" stroke="#000" stroke-width="3" stroke-dashoffset="7.8" d="M50.507843 145.78773c3.078857 25.46494 5.126649 33.90738 12.286179 43.61267 13.430225 18.20571 42.500478 22.5844 67.504498 21.12963 21.27994-5.6101 29.80667-10.12539 47.66752-20.01278 35.53719-19.67261 13.69489-40.76498 15.14377-58.76713l-.7262-48.35807-67.03639-28.511102-49.284998 28.403649-20.638819 19.14396-4.91556 43.359173z" stroke-linecap="round" stroke-linejoin="round" overflow="visible"/>
  <path fill="#f7ddbf" stroke="#000" stroke-width="3" stroke-dashoffset="7.8" d="M49.897132 176.58428c.933107.35038 3.11104.77352 3.897187.80784-4.099558-7.77433-1.162513-34.17511.459631-38.47117-21.535456-8.33487-20.654387 30.44946-4.356818 37.66333z" stroke-linecap="round" stroke-linejoin="round" overflow="visible"/>
  <path fill="#b10000" stroke="#000" stroke-width="3" stroke-dashoffset="7.8" d="M108.54752 208.29298c2.59248.70784 4.85941 3.5505 23.68911-.82948l24.9612-6.82089s21.18003-29.62129 17.19071-35.57005c-13.09664-19.52929-34.6683 21.59155-54.42734 12.46446-71.779887-33.15658-44.774197 14.81119-11.41368 30.75596z" stroke-linecap="round" stroke-linejoin="round" overflow="visible"/>
  <path fill="#fb9ca9" fill-opacity=".917012" stroke="#000" stroke-width="3" stroke-dashoffset="7.8" d="M160.23474 193.75989c-11.93572-4.52526-47.72734-6.72497-61.36138 1.20629-6.3477 3.85979 3.41218 11.47444 10.02621 14.53942 14.61999 1.08294 29.18624 2.30593 48.65024-9.23353l2.68493-6.51218z" stroke-linecap="round" stroke-linejoin="round" overflow="visible"/>
  <path stroke="#000" stroke-width="3" stroke-dashoffset="7.8" d="M136.56055 95.646696l-1.37042-7.644533c12.33474-2.102438 39.95933 6.251137 52.08457 21.007197-16.94629-10.370563-41.27118-18.476504-50.71415-13.362664zM111.11407 96.962321l-.23886-7.762717c-12.50295.491834-37.80509 14.373549-46.619397 31.316716 14.437521-13.64856 36.562357-26.606145 46.858257-23.553999z" stroke-linecap="round" stroke-linejoin="round" overflow="visible"/>
  <path fill="#fff" stroke="#000" stroke-width="2.8943782" d="M128.57143 132.85715c0 6.90356-6.07614 12.5-13.57143 12.5s-13.57143-5.59644-13.57143-12.5 6.07614-12.5 13.57143-12.5 13.57143 5.59644 13.57143 12.5z" transform="matrix(.991 .092 -.099 1.075 -4.047 -24.286)"/>
  <path fill="#fff" stroke="#000" stroke-width="2.8943782" d="M128.57143 132.85715c0 6.90356-6.07614 12.5-13.57143 12.5s-13.57143-5.59644-13.57143-12.5 6.07614-12.5 13.57143-12.5 13.57143 5.59644 13.57143 12.5z" transform="matrix(.991 .092 -.099 1.075 55.411 -29.736)"/>
  <path d="M104.2903366 132.4735376c-.4895503 5.2762636-4.9386592 9.1799584-9.9373792 8.719139-4.9987072-.4608184-8.6541102-5.111648-8.16456-10.3879115.4895502-5.2762634 4.9386708-9.1799444 9.937378-8.719126 4.99872.4608194 8.6541114 5.111635 8.1645612 10.3878987zM164.0713366 127.7665376c-.4895502 5.2762636-4.9386592 9.1799584-9.9373792 8.719139-4.9987072-.4608184-8.6541103-5.111648-8.16456-10.3879115.4895502-5.2762634 4.9386708-9.1799444 9.937378-8.719126 4.99872.4608194 8.6541114 5.111635 8.1645612 10.3878987z"/>
  <path stroke="#000" stroke-width="3" stroke-dashoffset="7.8" d="M143.76102 21.629993c33.99832 7.192901 51.58902 25.123456 53.20515 34.181046 6.48992 28.806399 33.48994 36.071079 17.43085 60.467181-1.16475 1.76944-29.15004 20.08053-30.49041 21.85835 7.3203-18.45796 10.42106-36.302444-2.75352-47.529849-.81081 5.078637-4.92304 7.756324-11.87297 13.704277 3.51873-21.376139-.0123-26.653376-5.79723-37.745575-.50707 15.584685-6.04571 24.388243-14.59189 23.845074 2.25549-9.831481-8.39812-32.875378-27.47437-19.596454-4.9995 6.89373-3.62371 18.214113-.3119 26.401229-14.26855-7.18675-16.38193-21.35461-11.37627-23.86418-16.26484 17.074639-30.476294 31.446486-27.31732 44.833918-8.549121-9.70626-2.771331-11.822638-2.337421-31.04372-11.320454 12.547181-20.985537 29.22106-16.813038 51.09998-10.886451-8.42356-13.089246-2.60038-7.868207-12.38967 2.587066 17.76822 5.063207 29.13767 2.172352 39.76646-2.7526 10.12045 4.683475 21.12608 8.156521 37.02919-4.303366-8.38459-5.902255-9.40049-7.967088-11.68591-3.965212-3.17483-2.32902 2.44158-3.442294 3.7428-2.886963-2.57479-2.08879-3.08257-4.637561-9.98413-3.319368-9.45089-6.395471-16.96063-4.08314-27.20898l15.31281-84.058227z" stroke-linecap="round" stroke-linejoin="round" overflow="visible"/>
</svg>
